<mxfile host="drawio-plugin" modified="2025-06-24T23:50:57.796Z" agent="5.0 (Windows NT 6.2; Win64; x64) AppleWebKit/537.36 (KHTML, like Gecko) Chrome/89.0.4389.114 Safari/537.36" etag="YZAJydTUvFcR8ELLGze0" version="20.5.3" type="embed"><diagram id="23iRSUPoRavnBvh4doch" name="Page-1"><mxGraphModel dx="737" dy="1088" grid="1" gridSize="10" guides="1" tooltips="1" connect="1" arrows="1" fold="1" page="1" pageScale="1" pageWidth="827" pageHeight="1169" math="0" shadow="0"><root><mxCell id="0"/><mxCell id="1" parent="0"/><mxCell id="36" style="edgeStyle=orthogonalEdgeStyle;rounded=0;orthogonalLoop=1;jettySize=auto;html=1;exitX=0;exitY=0.5;exitDx=0;exitDy=0;entryX=0.5;entryY=0;entryDx=0;entryDy=0;" edge="1" parent="1" source="23" target="7"><mxGeometry relative="1" as="geometry"/></mxCell><mxCell id="23" value="" style="rounded=1;whiteSpace=wrap;html=1;sketch=1;hachureGap=4;jiggle=2;fontFamily=Nanum Pen Script;fontSource=https%3A%2F%2Ffonts.googleapis.com%2Fcss%3Ffamily%3DNanum%2BPen%2BScript;fontSize=30;" parent="1" vertex="1"><mxGeometry x="423" y="170" width="190" height="730" as="geometry"/></mxCell><mxCell id="35" style="edgeStyle=orthogonalEdgeStyle;rounded=0;orthogonalLoop=1;jettySize=auto;html=1;exitX=0.5;exitY=1;exitDx=0;exitDy=0;entryX=0.5;entryY=0;entryDx=0;entryDy=0;" edge="1" parent="1" source="4" target="23"><mxGeometry relative="1" as="geometry"/></mxCell><mxCell id="4" value="시작" style="rounded=0;whiteSpace=wrap;html=1;sketch=1;hachureGap=4;jiggle=2;fontFamily=Nanum Pen Script;fontSource=https%3A%2F%2Ffonts.googleapis.com%2Fcss%3Ffamily%3DNanum%2BPen%2BScript;fontSize=30;fontStyle=1" parent="1" vertex="1"><mxGeometry x="458" y="60" width="120" height="60" as="geometry"/></mxCell><mxCell id="5" value="종료" style="rounded=0;whiteSpace=wrap;html=1;sketch=1;hachureGap=4;jiggle=2;fontFamily=Nanum Pen Script;fontSource=https%3A%2F%2Ffonts.googleapis.com%2Fcss%3Ffamily%3DNanum%2BPen%2BScript;fontSize=30;fontStyle=1" parent="1" vertex="1"><mxGeometry x="211" y="821" width="120" height="60" as="geometry"/></mxCell><mxCell id="12" style="edgeStyle=orthogonalEdgeStyle;rounded=0;sketch=1;hachureGap=4;jiggle=2;orthogonalLoop=1;jettySize=auto;html=1;exitX=0.5;exitY=1;exitDx=0;exitDy=0;fontFamily=Nanum Pen Script;fontSource=https%3A%2F%2Ffonts.googleapis.com%2Fcss%3Ffamily%3DNanum%2BPen%2BScript;fontSize=30;" parent="1" source="7" target="11" edge="1"><mxGeometry relative="1" as="geometry"/></mxCell><mxCell id="7" value="Hexo&lt;br style=&quot;font-size: 30px;&quot;&gt;생성" style="ellipse;whiteSpace=wrap;html=1;sketch=1;hachureGap=4;jiggle=2;fontFamily=Nanum Pen Script;fontSource=https%3A%2F%2Ffonts.googleapis.com%2Fcss%3Ffamily%3DNanum%2BPen%2BScript;fontSize=30;" parent="1" vertex="1"><mxGeometry x="206" y="201" width="130" height="110" as="geometry"/></mxCell><mxCell id="14" style="edgeStyle=orthogonalEdgeStyle;rounded=0;sketch=1;hachureGap=4;jiggle=2;orthogonalLoop=1;jettySize=auto;html=1;exitX=0.5;exitY=1;exitDx=0;exitDy=0;fontFamily=Nanum Pen Script;fontSource=https%3A%2F%2Ffonts.googleapis.com%2Fcss%3Ffamily%3DNanum%2BPen%2BScript;fontSize=30;" parent="1" source="11" target="13" edge="1"><mxGeometry relative="1" as="geometry"/></mxCell><mxCell id="11" value="테마변경" style="rounded=0;whiteSpace=wrap;html=1;sketch=1;hachureGap=4;jiggle=2;fontFamily=Nanum Pen Script;fontSource=https%3A%2F%2Ffonts.googleapis.com%2Fcss%3Ffamily%3DNanum%2BPen%2BScript;fontSize=30;fontStyle=0" parent="1" vertex="1"><mxGeometry x="211" y="361" width="120" height="60" as="geometry"/></mxCell><mxCell id="16" style="edgeStyle=orthogonalEdgeStyle;rounded=0;sketch=1;hachureGap=4;jiggle=2;orthogonalLoop=1;jettySize=auto;html=1;exitX=0.5;exitY=1;exitDx=0;exitDy=0;fontFamily=Nanum Pen Script;fontSource=https%3A%2F%2Ffonts.googleapis.com%2Fcss%3Ffamily%3DNanum%2BPen%2BScript;fontSize=30;" parent="1" source="13" target="15" edge="1"><mxGeometry relative="1" as="geometry"/></mxCell><mxCell id="13" value="배포하기&lt;br&gt;(Github&lt;br&gt;Page)" style="rounded=0;whiteSpace=wrap;html=1;sketch=1;hachureGap=4;jiggle=2;fontFamily=Nanum Pen Script;fontSource=https%3A%2F%2Ffonts.googleapis.com%2Fcss%3Ffamily%3DNanum%2BPen%2BScript;fontSize=30;fontStyle=0" parent="1" vertex="1"><mxGeometry x="211" y="481" width="120" height="130" as="geometry"/></mxCell><mxCell id="17" style="edgeStyle=orthogonalEdgeStyle;rounded=0;sketch=1;hachureGap=4;jiggle=2;orthogonalLoop=1;jettySize=auto;html=1;exitX=0.5;exitY=1;exitDx=0;exitDy=0;fontFamily=Nanum Pen Script;fontSource=https%3A%2F%2Ffonts.googleapis.com%2Fcss%3Ffamily%3DNanum%2BPen%2BScript;fontSize=30;" parent="1" source="15" target="5" edge="1"><mxGeometry relative="1" as="geometry"/></mxCell><mxCell id="15" value="블로그&lt;br&gt;확인" style="rounded=0;whiteSpace=wrap;html=1;sketch=1;hachureGap=4;jiggle=2;fontFamily=Nanum Pen Script;fontSource=https%3A%2F%2Ffonts.googleapis.com%2Fcss%3Ffamily%3DNanum%2BPen%2BScript;fontSize=30;fontStyle=0" parent="1" vertex="1"><mxGeometry x="211" y="661" width="120" height="90" as="geometry"/></mxCell><mxCell id="32" style="edgeStyle=orthogonalEdgeStyle;rounded=0;orthogonalLoop=1;jettySize=auto;html=1;exitX=0.5;exitY=1;exitDx=0;exitDy=0;entryX=0.5;entryY=0;entryDx=0;entryDy=0;" edge="1" parent="1" source="18" target="19"><mxGeometry relative="1" as="geometry"/></mxCell><mxCell id="18" value="GitHub&lt;br&gt;계정생성" style="rounded=1;whiteSpace=wrap;html=1;sketch=1;hachureGap=4;jiggle=2;fontFamily=Nanum Pen Script;fontSource=https%3A%2F%2Ffonts.googleapis.com%2Fcss%3Ffamily%3DNanum%2BPen%2BScript;fontSize=30;fillColor=#f8cecc;strokeColor=#b85450;" parent="1" vertex="1"><mxGeometry x="443" y="513" width="150" height="90" as="geometry"/></mxCell><mxCell id="21" style="edgeStyle=orthogonalEdgeStyle;rounded=0;sketch=1;hachureGap=4;jiggle=2;orthogonalLoop=1;jettySize=auto;html=1;exitX=0.5;exitY=1;exitDx=0;exitDy=0;fontFamily=Nanum Pen Script;fontSource=https%3A%2F%2Ffonts.googleapis.com%2Fcss%3Ffamily%3DNanum%2BPen%2BScript;fontSize=30;" parent="1" source="19" target="20" edge="1"><mxGeometry relative="1" as="geometry"/></mxCell><mxCell id="19" value="Github&lt;br&gt;Page&amp;nbsp;생성" style="rounded=1;whiteSpace=wrap;html=1;sketch=1;hachureGap=4;jiggle=2;fontFamily=Nanum Pen Script;fontSource=https%3A%2F%2Ffonts.googleapis.com%2Fcss%3Ffamily%3DNanum%2BPen%2BScript;fontSize=30;fillColor=#f8cecc;strokeColor=#b85450;" parent="1" vertex="1"><mxGeometry x="443" y="653" width="150" height="90" as="geometry"/></mxCell><mxCell id="20" value="Github&lt;br&gt;ssh 연결" style="rounded=1;whiteSpace=wrap;html=1;sketch=1;hachureGap=4;jiggle=2;fontFamily=Nanum Pen Script;fontSource=https%3A%2F%2Ffonts.googleapis.com%2Fcss%3Ffamily%3DNanum%2BPen%2BScript;fontSize=30;fillColor=#f8cecc;strokeColor=#b85450;" parent="1" vertex="1"><mxGeometry x="443" y="792" width="150" height="90" as="geometry"/></mxCell><mxCell id="24" value="사전 준비 사항" style="text;html=1;strokeColor=none;fillColor=none;align=center;verticalAlign=middle;whiteSpace=wrap;rounded=0;sketch=1;hachureGap=4;jiggle=2;fontFamily=Nanum Pen Script;fontSource=https%3A%2F%2Ffonts.googleapis.com%2Fcss%3Ffamily%3DNanum%2BPen%2BScript;fontSize=30;fontStyle=1;fontColor=#0808FF;" parent="1" vertex="1"><mxGeometry x="432" y="190" width="170" height="30" as="geometry"/></mxCell><mxCell id="30" style="edgeStyle=orthogonalEdgeStyle;rounded=0;orthogonalLoop=1;jettySize=auto;html=1;exitX=0.5;exitY=1;exitDx=0;exitDy=0;" edge="1" parent="1" source="28" target="29"><mxGeometry relative="1" as="geometry"/></mxCell><mxCell id="28" value="Git 설치&lt;br&gt;(소스형상관리)" style="rounded=1;whiteSpace=wrap;html=1;sketch=1;hachureGap=4;jiggle=2;fontFamily=Nanum Pen Script;fontSource=https%3A%2F%2Ffonts.googleapis.com%2Fcss%3Ffamily%3DNanum%2BPen%2BScript;fontSize=30;fillColor=#f8cecc;strokeColor=#b85450;" vertex="1" parent="1"><mxGeometry x="443" y="234" width="150" height="90" as="geometry"/></mxCell><mxCell id="31" style="edgeStyle=orthogonalEdgeStyle;rounded=0;orthogonalLoop=1;jettySize=auto;html=1;exitX=0.5;exitY=1;exitDx=0;exitDy=0;" edge="1" parent="1" source="29" target="18"><mxGeometry relative="1" as="geometry"/></mxCell><mxCell id="29" value="Nodejs 설치&lt;br&gt;(npm패키지)" style="rounded=1;whiteSpace=wrap;html=1;sketch=1;hachureGap=4;jiggle=2;fontFamily=Nanum Pen Script;fontSource=https%3A%2F%2Ffonts.googleapis.com%2Fcss%3Ffamily%3DNanum%2BPen%2BScript;fontSize=30;fillColor=#f8cecc;strokeColor=#b85450;" vertex="1" parent="1"><mxGeometry x="443" y="374" width="150" height="90" as="geometry"/></mxCell></root></mxGraphModel></diagram></mxfile>